<svg width="80" height="80" viewBox="0 0 80 80" fill="none" xmlns="http://www.w3.org/2000/svg">
<path d="M51.015 29.14C54.0367 32.1083 55.5475 35.7542 55.5475 40.0775C55.5475 44.4525 54.0634 48.1242 51.095 51.0925C48.0734 54.0608 44.4017 55.545 40.08 55.545C35.7584 55.545 32.1125 54.0608 29.1425 51.0925C26.1209 48.1242 24.61 44.4525 24.61 40.0775C24.61 35.7542 26.0942 32.1083 29.0625 29.14C32.0842 26.1183 35.7559 24.6075 40.0775 24.6075C44.3992 24.6075 48.045 26.1183 51.015 29.14ZM40 27.97C36.615 27.97 33.75 29.1158 31.405 31.4075C29.0617 33.7508 27.89 36.6417 27.89 40.08C27.89 43.465 29.0617 46.33 31.405 48.675C33.7484 51.0717 36.6134 52.27 40 52.27C43.49 52.27 46.3809 51.0983 48.6725 48.755C51.0159 46.3583 52.1875 43.4675 52.1875 40.0825C52.1875 36.6442 51.0417 33.7792 48.75 31.4875C46.4067 29.1442 43.49 27.9725 40 27.9725V27.97ZM11.25 41.1725C10.9367 40.9125 10.78 40.5475 10.78 40.0775C10.78 39.6608 10.9367 39.2958 11.25 38.9825C11.5634 38.6692 11.9284 38.5125 12.345 38.5125H19.5325C19.9492 38.5125 20.2875 38.6692 20.5475 38.9825C20.8609 39.2958 21.0175 39.6608 21.0175 40.0775C21.0175 40.4942 20.8875 40.8592 20.6275 41.1725C20.3675 41.4858 20.0292 41.6425 19.6125 41.6425H12.3475C11.9309 41.6425 11.5634 41.4858 11.25 41.1725ZM60 22.1875L55.78 26.485C55.415 26.7983 55.0242 26.955 54.6075 26.955C54.1392 26.955 53.7484 26.7725 53.435 26.4075C53.175 26.1475 53.045 25.8092 53.045 25.3925C53.045 24.9242 53.175 24.5592 53.435 24.2975L57.7325 19.9225C58.0459 19.6625 58.4109 19.5325 58.8275 19.5325C59.2959 19.5325 59.6867 19.6625 60 19.9225C60.26 20.2358 60.39 20.6008 60.39 21.0175C60.39 21.4858 60.26 21.8767 60 22.19V22.1875ZM19.61 21.095C19.61 20.6267 19.7667 20.2358 20.08 19.9225C20.34 19.6625 20.6784 19.5325 21.095 19.5325C21.5634 19.5325 21.9542 19.6625 22.2675 19.9225L26.565 24.2975C26.825 24.5575 26.955 24.8958 26.955 25.3125C26.955 25.7808 26.825 26.1458 26.565 26.4075C26.305 26.7725 25.94 26.955 25.47 26.955C25 26.955 24.6092 26.7983 24.2975 26.485L20.0775 22.1875C19.7642 21.8742 19.6075 21.5092 19.6075 21.0925L19.61 21.095ZM38.8275 11.25C39.1409 10.885 39.5059 10.7025 39.9225 10.7025C40.3909 10.7025 40.7817 10.8592 41.095 11.1725C41.4084 11.5375 41.565 11.9283 41.565 12.345V19.455C41.565 19.8717 41.4084 20.2367 41.095 20.55C40.7817 20.8633 40.4167 21.02 40 21.02C39.5834 21.02 39.2184 20.89 38.905 20.63C38.5917 20.3167 38.435 19.9517 38.435 19.535V12.3475C38.435 11.9308 38.565 11.5658 38.825 11.2525L38.8275 11.25ZM38.8275 59.61C39.1409 59.2967 39.5059 59.14 39.9225 59.14C40.3909 59.14 40.7817 59.2967 41.095 59.61C41.4084 59.975 41.565 60.3658 41.565 60.7825V67.8925C41.565 68.3092 41.4084 68.6742 41.095 68.9875C40.7817 69.3008 40.4167 69.4575 40 69.4575C39.5834 69.4575 39.2184 69.3275 38.905 69.0675C38.5917 68.7542 38.435 68.3892 38.435 67.9725V60.785C38.435 60.3683 38.565 59.9775 38.825 59.6125L38.8275 59.61ZM59.4525 41.25C59.1392 40.9367 58.9825 40.5458 58.9825 40.0775C58.9825 39.6608 59.1392 39.2958 59.4525 38.9825C59.7659 38.6692 60.1309 38.5125 60.5475 38.5125H67.735C68.1517 38.5125 68.49 38.6692 68.75 38.9825C69.0634 39.2958 69.22 39.6608 69.22 40.0775C69.22 40.4942 69.09 40.8592 68.83 41.1725C68.57 41.4858 68.2317 41.6425 67.815 41.6425H60.55C60.1334 41.6425 59.7684 41.5125 59.455 41.2525L59.4525 41.25ZM60.39 58.985C60.39 59.4533 60.26 59.87 60 60.235C59.6867 60.495 59.3217 60.625 58.905 60.625C58.4367 60.625 58.0459 60.495 57.7325 60.235L53.435 55.86C53.175 55.6 53.045 55.2617 53.045 54.845C53.045 54.3767 53.175 54.0117 53.435 53.75C53.7484 53.385 54.1134 53.2025 54.53 53.2025C54.9984 53.2025 55.415 53.3592 55.78 53.6725L60 57.97C60.26 58.23 60.39 58.5683 60.39 58.985ZM20.0775 57.97L24.2975 53.6725C24.6109 53.3592 25.0017 53.2025 25.47 53.2025C25.9384 53.2025 26.3034 53.385 26.565 53.75C26.825 54.01 26.955 54.3483 26.955 54.765C26.955 55.2333 26.825 55.5983 26.565 55.86L22.2675 60.235C21.9542 60.495 21.5892 60.625 21.1725 60.625C20.7042 60.625 20.3392 60.495 20.0775 60.235C19.7642 59.87 19.6075 59.4792 19.6075 59.0625C19.6075 58.5942 19.7642 58.2317 20.0775 57.97Z" fill="white"/>
</svg>
