<svg width="80" height="80" viewBox="0 0 80 80" fill="none" xmlns="http://www.w3.org/2000/svg">
<path d="M28.36 65.39C27.9433 65.8583 27.4483 66.0925 26.875 66.0925C26.25 66.0925 25.7292 65.8842 25.3125 65.4675C24.8958 64.9992 24.6875 64.4783 24.6875 63.905V56.9525C24.6875 56.3275 24.8958 55.8067 25.3125 55.39C25.7292 54.9217 26.25 54.6875 26.875 54.6875C27.4483 54.6875 27.9433 54.9217 28.36 55.39C28.8283 55.8067 29.0625 56.3275 29.0625 56.9525V63.905C29.0625 64.4783 28.8283 64.9733 28.36 65.39ZM54.6875 66.72C54.2708 67.1883 53.7758 67.4225 53.2025 67.4225C52.6292 67.4225 52.1342 67.2142 51.7175 66.7975C51.2492 66.3292 51.015 65.8083 51.015 65.235V57.5C51.015 56.9267 51.2233 56.4317 51.64 56.015C52.1083 55.5467 52.6292 55.3125 53.2025 55.3125C53.8275 55.3125 54.3483 55.5208 54.765 55.9375C55.1817 56.4058 55.39 56.9267 55.39 57.5V65.235C55.39 65.8083 55.1558 66.3033 54.6875 66.72ZM23.125 31.5625C22.0833 31.5108 21.5625 30.7817 21.5625 29.375C21.6675 28.02 21.8242 26.8483 22.0325 25.86C20.4175 25.9117 19.0633 26.4325 17.97 27.4225C16.1983 29.1408 15.4692 31.3025 15.7825 33.9075C14.1675 34.2725 12.9692 34.8975 12.1875 35.7825C11.3025 36.7725 10.86 37.9442 10.86 39.2975C11.0167 40.5992 11.5117 41.7192 12.345 42.6575C13.5433 43.6475 14.7675 44.1425 16.0175 44.1425H58.595C63.3867 44.1425 66.6942 41.6425 68.5175 36.6425L68.83 34.3775C68.8817 30.5758 67.1108 27.685 63.5175 25.705C62.0075 24.975 60.4192 24.5842 58.7525 24.5325C55.4708 24.5325 52.6325 26.1208 50.2375 29.2975C49.4042 29.9742 48.6492 30.0267 47.9725 29.455C47.2425 28.8817 47.06 28.1 47.425 27.11C48.9883 24.4533 51.6183 22.5 55.315 21.25C54.2217 19.4267 52.4508 17.7075 50.0025 16.0925C47.6058 14.6858 45.1575 13.9825 42.6575 13.9825H40.9375C34.5308 14.5558 29.9217 17.2642 27.11 22.1075C25.9117 24.5042 25.2342 27.0042 25.0775 29.6075C24.9725 30.9625 24.3217 31.6133 23.125 31.56V31.5625ZM29.14 47.4225V51.1725C29.14 51.7975 28.9317 52.3183 28.515 52.735C28.0983 53.2033 27.5775 53.4375 26.9525 53.4375C26.3792 53.4375 25.8842 53.2292 25.4675 52.8125C24.9992 52.3442 24.765 51.7975 24.765 51.1725V47.4225H17.265C11.0667 47.3708 7.81167 44.6625 7.5 39.2975V39.14C7.55167 35.8583 9.1925 33.3583 12.4225 31.64C12.6825 29.8683 13.2558 28.3058 14.1425 26.9525C16.0175 24.1925 18.96 22.7083 22.97 22.5C23.5433 21.0933 24.3508 19.7392 25.3925 18.4375C27.0075 16.1458 29.5333 14.1408 32.97 12.4225C35.4183 11.3808 38.2567 10.7558 41.485 10.5475H42.0325C47.0325 10.5475 51.5117 12.2925 55.47 15.7825C56.825 17.1375 58.2833 18.9342 59.845 21.1725C62.97 21.2775 65.9392 22.6058 68.7525 25.1575C71.2008 27.8142 72.425 30.6792 72.425 33.7525C72.425 40.0025 69.3783 44.3775 63.285 46.8775C61.9833 47.1908 60.1342 47.3733 57.7375 47.425H55.4725V51.41C55.4725 52.0867 55.2383 52.6333 54.77 53.05C54.3017 53.4667 53.7808 53.675 53.2075 53.675C52.5825 53.675 52.0617 53.4667 51.645 53.05C51.2283 52.6333 51.02 52.0867 51.02 51.41V47.425H46.645V53.9875C46.645 54.5608 46.4367 55.0558 46.02 55.4725C45.6033 55.9408 45.0825 56.175 44.4575 56.175C43.8842 56.175 43.3892 55.9667 42.9725 55.55C42.4508 55.0817 42.19 54.5608 42.19 53.9875V47.425H37.815V58.3625C37.815 58.9875 37.6067 59.5083 37.19 59.925C36.7217 60.3417 36.175 60.55 35.55 60.55C34.9767 60.55 34.4817 60.3417 34.065 59.925C33.5967 59.5083 33.3625 58.9875 33.3625 58.3625V47.425H29.1425L29.14 47.4225Z" fill="white"/>
</svg>
