<svg width="80" height="80" viewBox="0 0 80 80" fill="none" xmlns="http://www.w3.org/2000/svg">
<path d="M8.0475 65.9375C7.6825 65.5208 7.5 65.0517 7.5 64.53C7.5 64.0083 7.6825 63.5658 8.0475 63.2025C8.46417 62.7858 8.93333 62.5775 9.455 62.5775H66.565C67.1383 62.5775 67.6075 62.76 67.9725 63.125C68.3375 63.5417 68.52 64.0108 68.52 64.5325C68.52 65.0542 68.3375 65.4967 67.9725 65.86C67.6075 66.2767 67.1383 66.485 66.565 66.485H9.455C8.93333 66.485 8.46417 66.3025 8.0475 65.9375ZM12.0325 58.125C11.6675 57.7083 11.485 57.2392 11.485 56.7175C11.485 56.1958 11.6675 55.7533 12.0325 55.39C12.4492 54.9733 12.9183 54.765 13.44 54.765H70.55C71.1233 54.765 71.5925 54.9475 71.9575 55.3125C72.3225 55.7292 72.505 56.1983 72.505 56.72C72.505 57.2417 72.3225 57.6842 71.9575 58.0475C71.5925 58.4642 71.1233 58.6725 70.55 58.6725H13.44C12.9183 58.6725 12.4492 58.49 12.0325 58.125ZM8.125 50.3125C7.70833 49.8958 7.5 49.4267 7.5 48.905C7.5 48.3833 7.6825 47.9408 8.0475 47.5775C8.46417 47.1608 8.93333 46.9525 9.455 46.9525H66.565C67.1383 46.9525 67.6075 47.135 67.9725 47.5C68.3375 47.9167 68.52 48.3858 68.52 48.9075C68.52 49.4292 68.3375 49.8717 67.9725 50.235C67.6075 50.6517 67.1383 50.86 66.565 50.86H9.455C8.93333 50.86 8.48833 50.6775 8.125 50.3125Z" fill="white"/>
</svg>
