<svg width="80" height="80" viewBox="0 0 80 80" fill="none" xmlns="http://www.w3.org/2000/svg">
<path d="M23.125 31.5625C22.0833 31.5108 21.5625 30.7817 21.5625 29.375C21.6675 28.02 21.8242 26.8483 22.0325 25.86C20.4175 25.9117 19.0633 26.4325 17.97 27.4225C16.1983 29.1408 15.4692 31.3025 15.7825 33.9075C14.1675 34.2725 12.9692 34.8975 12.1875 35.7825C11.3025 36.7725 10.86 37.9442 10.86 39.2975C11.0167 40.5992 11.5117 41.7192 12.345 42.6575C13.5433 43.6475 14.7675 44.1425 16.0175 44.1425H58.595C63.3867 44.1425 66.6942 41.6425 68.5175 36.6425L68.83 34.3775C68.8817 30.5758 67.1108 27.685 63.5175 25.705C62.0075 24.975 60.4192 24.5842 58.7525 24.5325C55.4708 24.5325 52.6325 26.1208 50.2375 29.2975C49.4042 29.9742 48.6492 30.0267 47.9725 29.455C47.2425 28.8817 47.06 28.1 47.425 27.11C48.9883 24.4533 51.6183 22.5 55.315 21.25C54.2217 19.4267 52.4508 17.7075 50.0025 16.0925C47.6058 14.6858 45.1575 13.9825 42.6575 13.9825H40.9375C34.5308 14.5558 29.9217 17.2642 27.11 22.1075C25.9117 24.5042 25.2342 27.0042 25.0775 29.6075C24.9725 30.9625 24.3217 31.6133 23.125 31.56V31.5625ZM17.265 47.4225C11.0667 47.3708 7.81167 44.6625 7.5 39.2975V39.14C7.55167 35.8583 9.1925 33.3583 12.4225 31.64C12.6825 29.8683 13.2558 28.3058 14.1425 26.9525C16.0175 24.1925 18.96 22.7083 22.97 22.5C23.5433 21.0933 24.3508 19.7392 25.3925 18.4375C27.0075 16.1458 29.5333 14.1408 32.97 12.4225C35.4183 11.3808 38.2567 10.7558 41.485 10.5475H42.0325C47.0325 10.5475 51.5117 12.2925 55.47 15.7825C56.825 17.1375 58.2833 18.9342 59.845 21.1725C62.97 21.2775 65.9392 22.6058 68.7525 25.1575C71.2008 27.8142 72.425 30.6792 72.425 33.7525C72.425 40.0025 69.3783 44.3775 63.285 46.8775C61.9833 47.1908 60.1342 47.3733 57.7375 47.425H17.2675L17.265 47.4225ZM24.375 54.375C27.24 58.3333 28.5942 60.8333 28.4375 61.875C28.4375 63.0217 28.0467 63.9333 27.265 64.61C26.4833 65.34 25.52 65.705 24.375 65.705C23.23 65.705 22.2667 65.3667 21.485 64.69C20.7033 63.96 20.3125 63.0225 20.3125 61.8775C20.2075 60.8358 21.5617 58.3333 24.375 54.375ZM54.0625 57.4225C57.6042 62.3192 59.2967 65.4183 59.14 66.72C59.14 68.075 58.6708 69.195 57.7325 70.08C56.6908 70.965 55.4667 71.4075 54.06 71.4075C52.6533 71.4075 51.455 70.965 50.465 70.08C49.475 69.195 48.98 68.075 48.98 66.72C48.8233 65.4183 50.5158 62.3192 54.0575 57.4225H54.0625ZM39.4525 68.8275C39.9208 69.2958 40.155 69.8692 40.155 70.5475C40.155 71.2775 39.9208 71.8767 39.4525 72.345C38.9842 72.8133 38.385 73.0475 37.655 73.0475C36.925 73.0475 36.3258 72.8133 35.8575 72.345C35.3892 71.8767 35.155 71.2775 35.155 70.5475C35.155 69.8708 35.3892 69.2975 35.8575 68.8275C36.3258 68.3058 36.925 68.045 37.655 68.045C38.385 68.045 38.9842 68.3058 39.4525 68.8275ZM32.4225 50.0775C32.8908 50.5458 33.125 51.1192 33.125 51.7975C33.125 52.5275 32.8908 53.1267 32.4225 53.595C31.9542 54.0633 31.355 54.2975 30.625 54.2975C29.895 54.2975 29.2958 54.0633 28.8275 53.595C28.3592 53.1267 28.125 52.5275 28.125 51.7975C28.125 51.1208 28.3592 50.5475 28.8275 50.0775C29.2958 49.5558 29.895 49.295 30.625 49.295C31.355 49.295 31.9542 49.5558 32.4225 50.0775ZM54.2975 50.86C54.7658 51.3283 55 51.9017 55 52.58C55 53.31 54.7658 53.9092 54.2975 54.3775C53.8292 54.8458 53.23 55.08 52.5 55.08C51.77 55.08 51.1708 54.8458 50.7025 54.3775C50.2342 53.9092 50 53.31 50 52.58C50 51.9033 50.2342 51.33 50.7025 50.86C51.1708 50.3383 51.77 50.0775 52.5 50.0775C53.23 50.0775 53.8292 50.3383 54.2975 50.86ZM41.7975 55.5475C42.2658 56.0158 42.5 56.5892 42.5 57.2675C42.5 57.9975 42.2658 58.5967 41.7975 59.065C41.3292 59.5333 40.73 59.7675 40 59.7675C39.27 59.7675 38.6708 59.5333 38.2025 59.065C37.7342 58.5967 37.5 57.9975 37.5 57.2675C37.5 56.5908 37.7342 56.0175 38.2025 55.5475C38.6708 55.0258 39.27 54.765 40 54.765C40.73 54.765 41.3292 55.0258 41.7975 55.5475Z" fill="white"/>
</svg>
