<svg width="80" height="80" viewBox="0 0 80 80" fill="none" xmlns="http://www.w3.org/2000/svg">
<path d="M23.125 31.5625C22.0833 31.5108 21.5625 30.7817 21.5625 29.375C21.6675 28.02 21.8242 26.8483 22.0325 25.86C20.4175 25.9117 19.0633 26.4325 17.97 27.4225C16.1983 29.1408 15.4692 31.3025 15.7825 33.9075C14.1675 34.2725 12.9692 34.8975 12.1875 35.7825C11.3025 36.7725 10.86 37.9442 10.86 39.2975C11.0167 40.5992 11.5117 41.7192 12.345 42.6575C13.5433 43.6475 14.7675 44.1425 16.0175 44.1425H58.595C63.3867 44.1425 66.6942 41.6425 68.5175 36.6425L68.83 34.3775C68.8817 30.5758 67.1108 27.685 63.5175 25.705C62.0075 24.975 60.4192 24.5842 58.7525 24.5325C55.4708 24.5325 52.6325 26.1208 50.2375 29.2975C49.4042 29.9742 48.6492 30.0267 47.9725 29.455C47.2425 28.8817 47.06 28.1 47.425 27.11C48.9883 24.4533 51.6183 22.5 55.315 21.25C54.2217 19.4267 52.4508 17.7075 50.0025 16.0925C47.6058 14.6858 45.1575 13.9825 42.6575 13.9825H40.9375C34.5308 14.5558 29.9217 17.2642 27.11 22.1075C25.9117 24.5042 25.2342 27.0042 25.0775 29.6075C24.9725 30.9625 24.3217 31.6133 23.125 31.56V31.5625ZM17.265 47.4225C11.0667 47.3708 7.81167 44.6625 7.5 39.2975V39.14C7.55167 35.8583 9.1925 33.3583 12.4225 31.64C12.6825 29.8683 13.2558 28.3058 14.1425 26.9525C16.0175 24.1925 18.96 22.7083 22.97 22.5C23.5433 21.0933 24.3508 19.7392 25.3925 18.4375C27.0075 16.1458 29.5333 14.1408 32.97 12.4225C35.4183 11.3808 38.2567 10.7558 41.485 10.5475H42.0325C47.0325 10.5475 51.5117 12.2925 55.47 15.7825C56.825 17.1375 58.2833 18.9342 59.845 21.1725C62.97 21.2775 65.9392 22.6058 68.7525 25.1575C71.2008 27.8142 72.425 30.6792 72.425 33.7525C72.425 40.0025 69.3783 44.3775 63.285 46.8775C61.9833 47.1908 60.1342 47.3733 57.7375 47.425H17.2675L17.265 47.4225ZM37.6575 63.2025C40.4708 67.1608 41.7992 69.6867 41.6425 70.78C41.6425 71.8733 41.2517 72.7592 40.47 73.4375C39.6883 74.1675 38.7508 74.5325 37.6575 74.5325C36.4592 74.5325 35.4692 74.1942 34.6875 73.5175C33.9058 72.7875 33.515 71.8758 33.515 70.7825C33.41 69.6892 34.79 67.1633 37.655 63.205L37.6575 63.2025ZM24.375 54.375C27.24 58.3333 28.5942 60.8333 28.4375 61.875C28.4375 63.0217 28.0467 63.9333 27.265 64.61C26.4833 65.34 25.52 65.705 24.375 65.705C23.23 65.705 22.2667 65.3667 21.485 64.69C20.7033 63.96 20.3125 63.0225 20.3125 61.8775C20.2075 60.8358 21.5617 58.3333 24.375 54.375ZM54.0625 57.4225C57.6042 62.3192 59.2967 65.4183 59.14 66.72C59.14 68.075 58.6708 69.195 57.7325 70.08C56.6908 70.965 55.4667 71.4075 54.06 71.4075C52.6533 71.4075 51.455 70.965 50.465 70.08C49.475 69.195 48.98 68.075 48.98 66.72C48.8233 65.4183 50.5158 62.3192 54.0575 57.4225H54.0625Z" fill="white"/>
</svg>
