<svg width="80" height="80" viewBox="0 0 80 80" fill="none" xmlns="http://www.w3.org/2000/svg">
<path d="M39.9999 55.0775C43.5415 59.9742 45.2341 63.0733 45.0774 64.375C45.0774 65.73 44.6082 66.85 43.6699 67.735C42.6282 68.62 41.404 69.0625 39.9974 69.0625C38.5907 69.0625 37.3924 68.62 36.4024 67.735C35.4124 66.85 34.9174 65.73 34.9174 64.375C34.7607 63.0733 36.4532 59.9742 39.9949 55.0775H39.9999ZM26.0949 17.735C27.6582 15.7033 29.9499 13.9325 32.9699 12.4225C35.6265 11.2758 38.6474 10.6508 42.0324 10.5475C47.0324 10.5475 51.5115 12.2925 55.4699 15.7825C56.8249 17.1375 58.2832 18.9342 59.8449 21.1725C61.9799 21.2242 64.089 21.875 66.1724 23.125C66.7974 22.2917 67.214 21.4325 67.4224 20.5475C67.6824 19.1408 67.7082 18.0208 67.4999 17.1875C66.9265 14.9475 65.624 13.4367 63.5924 12.655C62.8107 12.29 61.8732 12.1075 60.7799 12.1075C59.6865 12.1592 58.7749 12.42 58.0449 12.89C57.0549 13.62 56.169 13.6458 55.3874 12.9675C54.814 12.2375 54.814 11.4825 55.3874 10.7025C56.064 10.0775 56.7932 9.635 57.5749 9.375C56.5849 7.91666 55.3349 6.66666 53.8249 5.625C51.8449 4.27 49.2924 3.54083 46.1674 3.4375C45.5424 3.4375 44.9174 3.46333 44.2924 3.515C41.7924 3.88 39.5524 4.73916 37.5724 6.0925C35.6974 7.49916 34.1349 9.3225 32.8849 11.5625C30.2799 11.9275 28.3524 12.9175 27.1024 14.5325C26.009 15.9392 25.5399 17.1892 25.6949 18.2825C25.7999 18.1258 25.9299 17.9433 26.0849 17.735H26.0949ZM27.1099 22.11C25.9115 24.5067 25.2341 27.0067 25.0774 29.61C24.9724 30.965 24.3215 31.6158 23.1249 31.5625C22.0832 31.5108 21.5624 30.7817 21.5624 29.375C21.6674 28.02 21.824 26.8483 22.0324 25.86C20.4174 25.9117 19.0632 26.4325 17.9699 27.4225C16.1982 29.1408 15.469 31.3025 15.7824 33.9075C14.1674 34.2725 12.969 34.8975 12.1874 35.7825C11.3024 36.7725 10.8599 37.9442 10.8599 39.2975C11.0165 40.5992 11.5115 41.7192 12.3449 42.6575C13.5432 43.6475 14.7674 44.1425 16.0174 44.1425H58.5949C63.3865 44.1425 66.694 41.6425 68.5174 36.6425L68.8299 34.3775C68.8815 30.5758 67.1107 27.685 63.5174 25.705C62.0074 24.975 60.419 24.5842 58.7524 24.5325C55.4707 24.5325 52.6324 26.1208 50.2374 29.2975C49.404 29.9742 48.649 30.0267 47.9724 29.455C47.2424 28.8817 47.0599 28.1 47.4249 27.11C48.9882 24.4533 51.6182 22.5 55.3149 21.25C54.2215 19.4267 52.4507 17.7075 50.0024 16.0925C47.6057 14.6858 45.1574 13.9825 42.6574 13.9825H40.9374C36.094 14.4508 32.2916 16.0917 29.5299 18.905C28.6966 19.79 27.8891 20.8575 27.1074 22.1075L27.1099 22.11ZM22.4224 20.625C22.109 18.3333 22.3957 16.2758 23.2824 14.4525C24.689 11.6392 27.1632 9.79 30.7049 8.905C34.2465 3.22833 39.3765 0.363331 46.0949 0.309998C49.8449 0.309998 53.0999 1.22166 55.8599 3.045C56.9015 3.775 57.9174 4.63416 58.9074 5.6225C60.054 6.76916 60.9399 7.86333 61.5649 8.905C63.9615 9.01 66.1232 9.9475 68.0499 11.7175C69.7165 13.2808 70.7324 15.3383 71.0974 17.89C71.254 20.8067 70.499 23.255 68.8324 25.235L68.9899 25.3925C71.2815 27.9442 72.4274 30.7308 72.4274 33.7525C72.4274 40.0025 69.3807 44.3775 63.2874 46.8775C61.9857 47.1908 60.1365 47.3733 57.7399 47.425H17.2699C11.0715 47.3733 7.81655 44.665 7.50488 39.3V39.1425C7.55655 35.8608 9.19738 33.3608 12.4274 31.6425C12.6874 29.8708 13.2607 28.3083 14.1474 26.955C16.0224 24.195 18.9649 22.7108 22.9749 22.5025C22.8182 22.0858 22.6357 21.4608 22.4274 20.6275L22.4224 20.625Z" fill="white"/>
</svg>
