<svg width="80" height="80" viewBox="0 0 80 80" fill="none" xmlns="http://www.w3.org/2000/svg">
<path d="M54.0626 62.5775L55.3901 60.3125C55.7034 59.7908 56.1201 59.4783 56.6401 59.375C57.1601 59.2717 57.6551 59.35 58.1251 59.61C58.5934 59.9233 58.8801 60.3142 58.9851 60.7825C59.1418 61.3042 59.0893 61.7992 58.8276 62.2675L57.5001 64.5325H60.0001C60.6251 64.5842 61.0943 64.7925 61.4076 65.1575C61.7726 65.5742 61.9809 66.0433 62.0326 66.565C62.0326 67.1383 61.8501 67.6075 61.4851 67.9725C61.0684 68.3375 60.5993 68.52 60.0776 68.52H57.5001L58.7501 70.865C59.0634 71.3333 59.1418 71.8283 58.9851 72.35C58.8284 72.9233 58.5159 73.34 58.0476 73.6C57.7876 73.7567 57.4751 73.835 57.1101 73.835C56.9534 73.835 56.7968 73.8092 56.6401 73.7575C56.1184 73.6525 55.6493 73.3658 55.2326 72.8975L53.9826 70.5525L52.7326 72.8975C52.4193 73.3658 52.0026 73.6525 51.4826 73.7575C51.3259 73.8092 51.1693 73.835 51.0126 73.835C50.6476 73.835 50.3351 73.7567 50.0751 73.6C49.5534 73.34 49.2151 72.9233 49.0601 72.35C48.9034 71.8283 48.9818 71.3075 49.2951 70.7875L50.7026 68.5225H47.8901C47.3684 68.5225 46.9259 68.34 46.5626 67.975C46.1976 67.5583 46.0151 67.1158 46.0151 66.6475C46.0151 66.0742 46.1976 65.5792 46.5626 65.1625C46.9276 64.7458 47.3968 64.5375 47.9701 64.5375H50.7051L49.2976 62.2725C49.0376 61.8042 48.9851 61.3092 49.1401 60.7875C49.3484 60.2658 49.6868 59.8492 50.1551 59.5375C50.5718 59.3292 51.0409 59.2767 51.5626 59.38C52.0843 59.4833 52.4751 59.7958 52.7351 60.3175L54.0626 62.5775ZM24.3751 58.515L25.3901 56.7175C25.5984 56.3525 25.9109 56.1442 26.3276 56.0925C26.7443 55.9875 27.1351 56.04 27.5001 56.25C27.8651 56.46 28.0993 56.7467 28.2026 57.11C28.3076 57.5267 28.2551 57.9175 28.0451 58.2825L27.0301 60.08H28.9826C29.4509 60.1317 29.8159 60.2883 30.0776 60.55C30.4426 60.8633 30.6251 61.2283 30.6251 61.645C30.6251 62.0617 30.4684 62.4 30.1551 62.66C29.8418 62.9733 29.4768 63.13 29.0601 63.13H26.9501L27.9651 65.005C28.1734 65.4217 28.2259 65.8383 28.1226 66.255C28.0193 66.6717 27.7851 66.9842 27.4201 67.1925C27.0551 67.3492 26.6901 67.4017 26.3251 67.35C25.9084 67.245 25.5701 66.9842 25.3101 66.5675L24.2951 64.77L23.2001 66.645C22.9918 67.01 22.6793 67.2183 22.2626 67.27C21.8459 67.375 21.4809 67.3492 21.1676 67.1925C20.8026 66.9842 20.5684 66.6717 20.4651 66.255C20.3084 65.8383 20.3609 65.4217 20.6226 65.005L21.6376 63.2075H19.5276C19.1109 63.2075 18.7726 63.0775 18.5126 62.8175C18.1993 62.5042 18.0426 62.1392 18.0426 61.7225C18.0426 61.3058 18.1726 60.9408 18.4326 60.6275C18.7459 60.3142 19.1368 60.1575 19.6051 60.1575H21.6376L20.6226 58.2825C20.4143 57.9175 20.3618 57.5267 20.4651 57.11C20.5684 56.6933 20.8026 56.3808 21.1676 56.1725C21.5326 56.0158 21.8976 55.9633 22.2626 56.015C22.6793 56.12 22.9918 56.3542 23.2001 56.7175L24.3751 58.515ZM37.6576 66.485L38.9851 64.22C39.2984 63.6983 39.7151 63.3858 40.2351 63.2825C40.7551 63.1792 41.2501 63.2575 41.7201 63.5175C42.1884 63.8308 42.4751 64.2217 42.5801 64.69C42.7368 65.2117 42.6843 65.7067 42.4226 66.175L41.0951 68.44H43.5951C44.2201 68.4917 44.6893 68.7 45.0026 69.065C45.3676 69.4817 45.5759 69.9508 45.6276 70.4725C45.6276 71.0458 45.4451 71.515 45.0801 71.88C44.6634 72.245 44.1943 72.4275 43.6726 72.4275H41.0951L42.3451 74.7725C42.6584 75.2408 42.7368 75.7358 42.5801 76.2575C42.4234 76.8308 42.1109 77.2475 41.6426 77.5075C41.3826 77.6642 41.0701 77.7425 40.7051 77.7425C40.5484 77.7425 40.3918 77.7167 40.2351 77.665C39.7134 77.56 39.2443 77.2733 38.8276 76.805L37.5776 74.46L36.3276 76.805C36.0143 77.2733 35.5976 77.56 35.0776 77.665C34.9209 77.7167 34.7643 77.7425 34.6076 77.7425C34.2426 77.7425 33.9301 77.6642 33.6701 77.5075C33.1484 77.2475 32.8101 76.8308 32.6551 76.2575C32.4984 75.7358 32.5768 75.215 32.8901 74.695L34.2976 72.43H31.4851C30.9634 72.43 30.5209 72.2475 30.1576 71.8825C29.7926 71.4658 29.6101 71.0233 29.6101 70.555C29.6101 69.9817 29.7926 69.4867 30.1576 69.07C30.5226 68.6533 30.9918 68.445 31.5651 68.445H34.3001L32.8926 66.18C32.6326 65.7117 32.5801 65.2167 32.7351 64.695C32.9434 64.1733 33.2818 63.7567 33.7501 63.445C34.1668 63.2367 34.6359 63.1842 35.1576 63.2875C35.6793 63.3908 36.0701 63.7033 36.3301 64.225L37.6576 66.485ZM20.8601 35.1575C19.8184 35.1058 19.2976 34.3508 19.2976 32.8925C19.4026 31.3292 19.5851 29.9492 19.8451 28.7525C17.8651 28.8042 16.2243 29.3775 14.9226 30.4725C12.8393 32.4525 11.9801 34.9267 12.3451 37.895C10.5734 38.3117 9.24511 39.015 8.36011 40.005C7.31844 41.1517 6.79761 42.5317 6.79761 44.145C6.95427 45.655 7.52761 46.9575 8.51761 48.0525C9.92427 49.1992 11.3826 49.7725 12.8926 49.7725H61.0176C66.5393 49.7725 70.3676 46.9075 72.5026 41.1775L72.8926 38.52C72.9443 34.145 70.8868 30.8117 66.7201 28.52C65.0018 27.6867 63.1784 27.2442 61.2501 27.1925C57.4484 27.1925 54.1934 29.0158 51.4851 32.6625C50.6518 33.3392 49.8701 33.3917 49.1401 32.82C48.3584 32.195 48.1501 31.3875 48.5151 30.3975C50.2868 27.4292 53.3334 25.2158 57.6551 23.7575C56.2484 21.5692 54.1651 19.5642 51.4051 17.7425C48.6968 16.0758 45.8843 15.2425 42.9676 15.2425H41.0151C33.7234 15.8675 28.4626 18.9925 25.2326 24.6175C23.8776 27.3258 23.0959 30.1642 22.8876 33.1325C22.7826 34.5392 22.1051 35.2167 20.8551 35.165L20.8601 35.1575ZM14.2976 53.125C7.37094 53.0733 3.72511 50.0783 3.36011 44.14V43.905C3.41177 40.3117 5.26094 37.4992 8.90761 35.4675C9.22094 33.4875 9.87177 31.7425 10.8601 30.2325C12.9434 27.1592 16.2509 25.4925 20.7826 25.2325C21.5126 23.6175 22.4501 22.0808 23.5951 20.6225C25.4184 18.0175 28.2568 15.7517 32.1101 13.825C34.8701 12.6267 38.0476 11.9233 41.6426 11.715H42.2676C47.8926 11.715 52.9451 13.6683 57.4251 17.575C58.9884 19.1383 60.6293 21.17 62.3476 23.67C65.9409 23.8783 69.3001 25.3892 72.4251 28.2025C75.1851 31.1708 76.5651 34.3742 76.5651 37.8125C76.5651 44.8442 73.1534 49.74 66.3301 52.5C64.8718 52.865 62.7884 53.0733 60.0801 53.125H14.2976Z" fill="white"/>
</svg>
