<svg width="80" height="80" viewBox="0 0 80 80" fill="none" xmlns="http://www.w3.org/2000/svg">
<path d="M54.0624 62.5775L55.3899 60.3125C55.7032 59.7908 56.1199 59.4783 56.6399 59.375C57.1599 59.2717 57.6549 59.35 58.1249 59.61C58.5932 59.9233 58.8799 60.3142 58.9849 60.7825C59.1415 61.3042 59.089 61.7992 58.8274 62.2675L57.4999 64.5325H59.9999C60.6249 64.5842 61.094 64.7925 61.4074 65.1575C61.7724 65.5742 61.9807 66.0433 62.0324 66.565C62.0324 67.1383 61.8499 67.6075 61.4849 67.9725C61.0682 68.3375 60.599 68.52 60.0774 68.52H57.4999L58.7499 70.865C59.0632 71.3333 59.1415 71.8283 58.9849 72.35C58.8282 72.9233 58.5157 73.34 58.0474 73.6C57.7874 73.7567 57.4749 73.835 57.1099 73.835C56.9532 73.835 56.7965 73.8092 56.6399 73.7575C56.1182 73.6525 55.649 73.3658 55.2324 72.8975L53.9824 70.5525L52.7324 72.8975C52.419 73.3658 52.0024 73.6525 51.4824 73.7575C51.3257 73.8092 51.169 73.835 51.0124 73.835C50.6474 73.835 50.3349 73.7567 50.0749 73.6C49.5532 73.34 49.2149 72.9233 49.0599 72.35C48.9032 71.8283 48.9815 71.3075 49.2949 70.7875L50.7024 68.5225H47.8899C47.3682 68.5225 46.9257 68.34 46.5624 67.975C46.1974 67.5583 46.0149 67.1158 46.0149 66.6475C46.0149 66.0742 46.1974 65.5792 46.5624 65.1625C46.9274 64.7458 47.3965 64.5375 47.9699 64.5375H50.7049L49.2974 62.2725C49.0374 61.8042 48.9849 61.3092 49.1399 60.7875C49.3482 60.2658 49.6865 59.8492 50.1549 59.5375C50.5715 59.3292 51.0407 59.2767 51.5624 59.38C52.084 59.4833 52.4749 59.7958 52.7349 60.3175L54.0624 62.5775ZM24.3749 58.515L25.3899 56.7175C25.5982 56.3525 25.9107 56.1442 26.3274 56.0925C26.7441 55.9875 27.1349 56.04 27.4999 56.25C27.8649 56.46 28.0991 56.7467 28.2024 57.11C28.3074 57.5267 28.2549 57.9175 28.0449 58.2825L27.0299 60.08H28.9824C29.4507 60.1317 29.8157 60.2883 30.0774 60.55C30.4424 60.8633 30.6249 61.2283 30.6249 61.645C30.6249 62.0617 30.4682 62.4 30.1549 62.66C29.8416 62.9733 29.4765 63.13 29.0599 63.13H26.9499L27.9649 65.005C28.1732 65.4217 28.2257 65.8383 28.1224 66.255C28.019 66.6717 27.7849 66.9842 27.4199 67.1925C27.0549 67.3492 26.6899 67.4017 26.3249 67.35C25.9082 67.245 25.5699 66.9842 25.3099 66.5675L24.2949 64.77L23.1999 66.645C22.9915 67.01 22.679 67.2183 22.2624 67.27C21.8457 67.375 21.4807 67.3492 21.1674 67.1925C20.8024 66.9842 20.5682 66.6717 20.4649 66.255C20.3082 65.8383 20.3607 65.4217 20.6224 65.005L21.6374 63.2075H19.5274C19.1107 63.2075 18.7724 63.0775 18.5124 62.8175C18.199 62.5042 18.0424 62.1392 18.0424 61.7225C18.0424 61.3058 18.1724 60.9408 18.4324 60.6275C18.7457 60.3142 19.1365 60.1575 19.6049 60.1575H21.6374L20.6224 58.2825C20.414 57.9175 20.3615 57.5267 20.4649 57.11C20.5682 56.6933 20.8024 56.3808 21.1674 56.1725C21.5324 56.0158 21.8974 55.9633 22.2624 56.015C22.679 56.12 22.9915 56.3542 23.1999 56.7175L24.3749 58.515ZM26.0949 17.735C27.6582 15.7033 29.9499 13.9325 32.9699 12.4225C35.6265 11.2758 38.6474 10.6508 42.0324 10.5475C47.0324 10.5475 51.5115 12.2925 55.4699 15.7825C56.8249 17.1375 58.2832 18.9342 59.8449 21.1725C61.9799 21.2242 64.089 21.875 66.1724 23.125C66.7974 22.2917 67.214 21.4325 67.4224 20.5475C67.6824 19.1408 67.7082 18.0208 67.4999 17.1875C66.9265 14.9475 65.624 13.4367 63.5924 12.655C62.8107 12.29 61.8732 12.1075 60.7799 12.1075C59.6865 12.1592 58.7749 12.42 58.0449 12.89C57.0549 13.62 56.169 13.6458 55.3874 12.9675C54.814 12.2375 54.814 11.4825 55.3874 10.7025C56.064 10.0775 56.7932 9.635 57.5749 9.375C56.5849 7.91666 55.3349 6.66666 53.8249 5.625C51.8449 4.27 49.2924 3.54083 46.1674 3.4375C45.5424 3.4375 44.9174 3.46333 44.2924 3.515C41.7924 3.88 39.5524 4.73916 37.5724 6.0925C35.6974 7.49916 34.1349 9.3225 32.8849 11.5625C30.2799 11.9275 28.3524 12.9175 27.1024 14.5325C26.009 15.9392 25.5399 17.1892 25.6949 18.2825C25.7999 18.1258 25.9299 17.9433 26.0849 17.735H26.0949ZM27.1099 22.11C25.9115 24.5067 25.2341 27.0067 25.0774 29.61C24.9724 30.965 24.3215 31.6158 23.1249 31.5625C22.0832 31.5108 21.5624 30.7817 21.5624 29.375C21.6674 28.02 21.824 26.8483 22.0324 25.86C20.4174 25.9117 19.0632 26.4325 17.9699 27.4225C16.1982 29.1408 15.469 31.3025 15.7824 33.9075C14.1674 34.2725 12.969 34.8975 12.1874 35.7825C11.3024 36.7725 10.8599 37.9442 10.8599 39.2975C11.0165 40.5992 11.5115 41.7192 12.3449 42.6575C13.5432 43.6475 14.7674 44.1425 16.0174 44.1425H58.5949C63.3865 44.1425 66.694 41.6425 68.5174 36.6425L68.8299 34.3775C68.8815 30.5758 67.1107 27.685 63.5174 25.705C62.0074 24.975 60.419 24.5842 58.7524 24.5325C55.4707 24.5325 52.6324 26.1208 50.2374 29.2975C49.404 29.9742 48.649 30.0267 47.9724 29.455C47.2424 28.8817 47.0599 28.1 47.4249 27.11C48.9882 24.4533 51.6182 22.5 55.3149 21.25C54.2215 19.4267 52.4507 17.7075 50.0024 16.0925C47.6057 14.6858 45.1574 13.9825 42.6574 13.9825H40.9374C36.094 14.4508 32.2916 16.0917 29.5299 18.905C28.6966 19.79 27.8891 20.8575 27.1074 22.1075L27.1099 22.11ZM22.4224 20.625C22.109 18.3333 22.3957 16.2758 23.2824 14.4525C24.689 11.6392 27.1632 9.79 30.7049 8.905C34.2465 3.22833 39.3765 0.363331 46.0949 0.309998C49.8449 0.309998 53.0999 1.22166 55.8599 3.045C56.9015 3.775 57.9174 4.63416 58.9074 5.6225C60.054 6.76916 60.9399 7.86333 61.5649 8.905C63.9615 9.01 66.1232 9.9475 68.0499 11.7175C69.7165 13.2808 70.7324 15.3383 71.0974 17.89C71.254 20.8067 70.499 23.255 68.8324 25.235L68.9899 25.3925C71.2815 27.9442 72.4274 30.7308 72.4274 33.7525C72.4274 40.0025 69.3807 44.3775 63.2874 46.8775C61.9857 47.1908 60.1365 47.3733 57.7399 47.425H17.2699C11.0715 47.3733 7.81655 44.665 7.50488 39.3V39.1425C7.55655 35.8608 9.19738 33.3608 12.4274 31.6425C12.6874 29.8708 13.2607 28.3083 14.1474 26.955C16.0224 24.195 18.9649 22.7108 22.9749 22.5025C22.8182 22.0858 22.6357 21.4608 22.4274 20.6275L22.4224 20.625Z" fill="white"/>
</svg>
