<svg width="80" height="80" viewBox="0 0 80 80" fill="none" xmlns="http://www.w3.org/2000/svg">
<path d="M40.0001 60.1575L41.3276 57.8925C41.6409 57.3708 42.0576 57.0583 42.5776 56.955C43.0976 56.8517 43.5926 56.93 44.0626 57.19C44.5309 57.5033 44.8176 57.8942 44.9226 58.3625C45.0793 58.8842 45.0268 59.3792 44.7651 59.8475L43.4376 62.1125H45.9376C46.5626 62.1642 47.0318 62.3725 47.3451 62.7375C47.7101 63.1542 47.9184 63.6233 47.9701 64.145C47.9701 64.7183 47.7876 65.1875 47.4226 65.5525C47.0059 65.9175 46.5368 66.1 46.0151 66.1H43.4376L44.6876 68.445C45.0009 68.9133 45.0793 69.4083 44.9226 69.93C44.7659 70.5033 44.4534 70.92 43.9851 71.18C43.7251 71.3367 43.4126 71.415 43.0476 71.415C42.8909 71.415 42.7343 71.3892 42.5776 71.3375C42.0559 71.2325 41.5868 70.9458 41.1701 70.4775L39.9201 68.1325L38.6701 70.4775C38.3568 70.9458 37.9401 71.2325 37.4201 71.3375C37.2634 71.3892 37.1068 71.415 36.9501 71.415C36.5851 71.415 36.2726 71.3367 36.0126 71.18C35.4909 70.92 35.1526 70.5033 34.9976 69.93C34.8409 69.4083 34.9193 68.8875 35.2326 68.3675L36.6401 66.1025H33.8276C33.3059 66.1025 32.8634 65.92 32.5001 65.555C32.1351 65.1383 31.9526 64.6958 31.9526 64.2275C31.9526 63.6542 32.1351 63.1592 32.5001 62.7425C32.8651 62.3258 33.3343 62.1175 33.9076 62.1175H36.6426L35.2351 59.8525C34.9751 59.3842 34.9226 58.8892 35.0776 58.3675C35.2859 57.8458 35.6243 57.4292 36.0926 57.1175C36.5093 56.9092 36.9784 56.8567 37.5001 56.96C38.0218 57.0633 38.4126 57.3758 38.6726 57.8975L40.0001 60.1575ZM20.8601 35.1575C19.8184 35.1058 19.2976 34.3508 19.2976 32.8925C19.4026 31.3292 19.5851 29.9492 19.8451 28.7525C17.8651 28.8042 16.2243 29.3775 14.9226 30.4725C12.8393 32.4525 11.9801 34.9267 12.3451 37.895C10.5734 38.3117 9.24511 39.015 8.36011 40.005C7.31844 41.1517 6.79761 42.5317 6.79761 44.145C6.95427 45.655 7.52761 46.9575 8.51761 48.0525C9.92427 49.1992 11.3826 49.7725 12.8926 49.7725H61.0176C66.5393 49.7725 70.3676 46.9075 72.5026 41.1775L72.8926 38.52C72.9443 34.145 70.8868 30.8117 66.7201 28.52C65.0018 27.6867 63.1784 27.2442 61.2501 27.1925C57.4484 27.1925 54.1934 29.0158 51.4851 32.6625C50.6518 33.3392 49.8701 33.3917 49.1401 32.82C48.3584 32.195 48.1501 31.3875 48.5151 30.3975C50.2868 27.4292 53.3334 25.2158 57.6551 23.7575C56.2484 21.5692 54.1651 19.5642 51.4051 17.7425C48.6968 16.0758 45.8843 15.2425 42.9676 15.2425H41.0151C33.7234 15.8675 28.4626 18.9925 25.2326 24.6175C23.8776 27.3258 23.0959 30.1642 22.8876 33.1325C22.7826 34.5392 22.1051 35.2167 20.8551 35.165L20.8601 35.1575ZM14.2976 53.125C7.37094 53.0733 3.72511 50.0783 3.36011 44.14V43.905C3.41177 40.3117 5.26094 37.4992 8.90761 35.4675C9.22094 33.4875 9.87177 31.7425 10.8601 30.2325C12.9434 27.1592 16.2509 25.4925 20.7826 25.2325C21.5126 23.6175 22.4501 22.0808 23.5951 20.6225C25.4184 18.0175 28.2568 15.7517 32.1101 13.825C34.8701 12.6267 38.0476 11.9233 41.6426 11.715H42.2676C47.8926 11.715 52.9451 13.6683 57.4251 17.575C58.9884 19.1383 60.6293 21.17 62.3476 23.67C65.9409 23.8783 69.3001 25.3892 72.4251 28.2025C75.1851 31.1708 76.5651 34.3742 76.5651 37.8125C76.5651 44.8442 73.1534 49.74 66.3301 52.5C64.8718 52.865 62.7884 53.0733 60.0801 53.125H14.2976Z" fill="white"/>
</svg>
